<svg id="G_Pay_Acceptance_Mark" data-name="G Pay Acceptance Mark" xmlns="http://www.w3.org/2000/svg" viewBox="0 0 752 400"><defs><style>.cls-1{fill:#fff;}.cls-2{fill:#3c4043;}.cls-3{fill:#4285f4;}.cls-4{fill:#34a853;}.cls-5{fill:#fabb05;}.cls-6{fill:#e94235;}</style></defs><path id="Base" class="cls-1" d="M722.7,170h-352c-110,0-200,90-200,200h0c0,110,90,200,200,200h352c110,0,200-90,200-200h0C922.7,260,832.7,170,722.7,170Z" transform="translate(-170.7 -170)"/><path id="Outline" class="cls-2" d="M722.7,186.2A181.43,181.43,0,0,1,794,200.7a185.43,185.43,0,0,1,98,98,182.55,182.55,0,0,1,0,142.6,185.43,185.43,0,0,1-98,98,181.43,181.43,0,0,1-71.3,14.5h-352a181.43,181.43,0,0,1-71.3-14.5,185.43,185.43,0,0,1-98-98,182.55,182.55,0,0,1,0-142.6,185.43,185.43,0,0,1,98-98,181.43,181.43,0,0,1,71.3-14.5h352m0-16.2h-352c-110,0-200,90-200,200h0c0,110,90,200,200,200h352c110,0,200-90,200-200h0c0-110-90-200-200-200Z" transform="translate(-170.7 -170)"/><g id="G_Pay_Lockup" data-name="G Pay Lockup"><g id="Pay_Typeface" data-name="Pay Typeface"><path id="Letter_p" data-name="Letter p" class="cls-2" d="M529.3,384.2v60.5H510.1V295.3H561c12.9,0,23.9,4.3,32.9,12.9q13.8,12.9,13.8,31.5a41.3,41.3,0,0,1-13.8,31.7c-8.9,8.5-19.9,12.7-32.9,12.7H529.3Zm0-70.5v52.1h32.1a25.63,25.63,0,0,0,19-7.7,25.18,25.18,0,0,0,7.7-18.3,24.9,24.9,0,0,0-7.7-18.1c-5-5.3-11.3-7.9-19-7.9H529.3Z" transform="translate(-170.7 -170)"/><path id="Letter_a" data-name="Letter a" class="cls-2" d="M657.9,339.1q21.3,0,33.6,11.4t12.3,31.2v63H685.5V430.5h-.8C676.8,442.2,666.2,448,653,448c-11.3,0-20.7-3.3-28.3-10a31.93,31.93,0,0,1-11.4-25q0-15.9,12-25.2c8-6.3,18.7-9.4,32-9.4,11.4,0,20.8,2.1,28.1,6.3v-4.4c0-6.7-2.6-12.3-7.9-17a27.1,27.1,0,0,0-18.6-7c-10.7,0-19.2,4.5-25.4,13.6l-16.9-10.6Q630.55,339.05,657.9,339.1Zm-24.8,74.2a15.14,15.14,0,0,0,6.4,12.5,23.5,23.5,0,0,0,14.9,5q12.15,0,21.6-9c6.3-6,9.5-13,9.5-21.1-6-4.7-14.3-7.1-25-7.1-7.8,0-14.3,1.9-19.5,5.6C635.7,403.1,633.1,407.8,633.1,413.3Z" transform="translate(-170.7 -170)"/><path id="Letter_y" data-name="Letter y" class="cls-2" d="M808.2,342.4l-64,147.2H724.4l23.8-51.5L706,342.4h20.9l30.4,73.4h.4l29.6-73.4Z" transform="translate(-170.7 -170)"/></g><g id="G_Mark" data-name="G Mark"><path id="Blue_500" data-name="Blue 500" class="cls-3" d="M452.93,372a101.06,101.06,0,0,0-1.6-18H370.85v33H417.2A39.7,39.7,0,0,1,400,413.58V435h27.59C443.7,420.08,452.93,398,452.93,372Z" transform="translate(-170.7 -170)"/><path id="Green_500" data-name="Green 500" class="cls-4" d="M400,413.58c-7.68,5.18-17.57,8.21-29.14,8.21-22.35,0-41.31-15.06-48.1-35.36H294.31v22.08a85.67,85.67,0,0,0,76.56,47.18c23.14,0,42.58-7.61,56.73-20.71Z" transform="translate(-170.7 -170)"/><path id="Yellow_500" data-name="Yellow 500" class="cls-5" d="M320.09,370.05a51.66,51.66,0,0,1,2.68-16.39V331.58H294.31a85.78,85.78,0,0,0,0,76.94l28.46-22.08A51.66,51.66,0,0,1,320.09,370.05Z" transform="translate(-170.7 -170)"/><path id="Red_500" data-name="Red 500" class="cls-6" d="M370.87,318.3a46.55,46.55,0,0,1,32.87,12.85l24.45-24.43C413.34,292.89,394,284.4,370.87,284.4a85.69,85.69,0,0,0-76.56,47.18l28.46,22.08C329.56,333.36,348.52,318.3,370.87,318.3Z" transform="translate(-170.7 -170)"/></g></g></svg>